<svg width="183" height="100" viewBox="0 0 183 100" fill="none" xmlns="http://www.w3.org/2000/svg">
<g id="rs_school_js 1" clip-path="url(#clip0_12_51)">
<path id="Vector" d="M94.4794 33.1222L103.186 32.2942C103.384 34.3887 103.749 35.9474 104.344 37.0677C105.304 38.8212 106.629 39.698 108.383 39.698C109.674 39.698 110.7 39.2596 111.396 38.3341C112.058 37.6035 112.455 36.4345 112.455 35.2167C112.455 34.0477 112.091 32.9274 111.462 32.1968C110.8 31.32 109.244 30.4432 106.794 29.6639C102.789 28.3487 99.9085 26.5952 98.2202 24.3546C96.5318 22.2601 95.5718 19.1914 95.638 15.9279C95.638 13.6873 96.1015 11.4466 96.9622 9.59569C97.9553 7.50119 99.3126 5.84508 100.935 4.91961C102.689 3.79929 105.139 3.21478 108.218 3.21478C111.991 3.21478 114.872 4.23768 116.858 6.33217C118.844 8.37796 120.036 11.6902 120.4 16.2201L111.793 16.9508C111.561 15.0024 111.098 13.5898 110.336 12.6644C109.575 11.7389 108.582 11.3005 107.291 11.3005C106.231 11.3005 105.437 11.6415 104.907 12.2747C104.411 12.8592 104.08 13.736 104.113 14.7102C104.113 15.4408 104.378 16.1227 104.775 16.5611C105.205 17.1456 106.231 17.6814 107.853 18.1685C111.859 19.4349 114.706 20.7014 116.461 22.0165C118.215 23.3317 119.473 24.9391 120.234 26.8387C121.029 28.7871 121.426 31.0277 121.393 33.3171C121.393 36.0448 120.863 38.7725 119.804 41.0618C118.712 43.4486 117.189 45.2995 115.401 46.4198C113.514 47.6376 111.131 48.2708 108.284 48.2708C103.252 48.2708 99.776 46.8582 97.8229 43.9844C95.8698 41.1105 94.7111 37.5061 94.4794 33.1222ZM2.08556 47.5402V3.99413H17.3466C20.1605 3.99413 22.3453 4.33509 23.835 5.06573C25.2916 5.74766 26.5827 7.16023 27.4434 9.05989C28.4034 11.1544 28.8669 13.5898 28.8338 16.1227C28.9331 20.4091 27.4434 24.5007 24.8944 26.6439C23.9012 27.472 22.8088 28.0565 21.6832 28.3487C22.5109 28.6897 23.3385 29.2742 24.0667 29.9561C24.6295 30.6381 25.093 31.4174 25.5233 32.2455C26.0199 33.0735 26.4503 33.999 26.8144 34.9732L31.2504 47.5889H20.8556L15.9562 34.1938C15.3272 32.489 14.7976 31.3687 14.301 30.8329C13.6389 30.151 12.8444 29.81 12.0499 29.81H11.2554V47.4915H2.08556V47.5402ZM11.2554 21.6269H15.1286C15.9562 21.5294 16.7507 21.3346 17.5452 21.0424C18.1411 20.8962 18.6708 20.4091 19.0349 19.6785C19.9287 17.925 19.7963 15.4408 18.7039 13.9308C18.108 13.2002 16.9493 12.8105 15.2941 12.8105H11.2554V21.6269ZM0 84.8514L8.7064 84.0234C8.90503 86.1178 9.26917 87.6765 9.86505 88.7969C10.792 90.5504 12.1492 91.4759 13.9038 91.4759C15.1948 91.4759 16.2211 91.0375 16.9162 90.112C17.5783 89.3327 17.9756 88.2123 17.9756 86.9946C17.9756 85.8256 17.6114 84.7053 16.9825 83.9746C16.3204 83.0979 14.7645 82.2211 12.2817 81.4418C8.27605 80.1266 5.39598 78.3731 3.70767 76.1325C2.01936 74.038 1.05933 70.9693 1.12554 67.7058C1.12554 65.4651 1.589 63.2245 2.44971 61.3736C3.44284 59.2791 4.80011 57.623 6.42221 56.6975C8.17674 55.5772 10.6264 54.9927 13.7051 54.9927C17.479 54.9927 20.3591 56.0156 22.3453 58.1101C24.3316 60.2046 25.4902 63.4681 25.8544 67.998L17.2473 68.7287C17.0156 66.7803 16.5521 65.3677 15.7907 64.4423C15.0624 63.5168 14.0362 63.0784 12.7451 63.1271C11.6858 63.1271 10.8913 63.4681 10.3616 64.15C9.83195 64.7345 9.53401 65.6113 9.56711 66.5855C9.56711 67.3161 9.83195 67.998 10.2292 68.4364C10.6596 69.0209 11.6858 69.5567 13.3079 70.0438C17.3135 71.3102 20.1605 72.5767 21.915 73.8918C23.6695 75.207 24.9275 76.8144 25.6889 78.7141C26.4834 80.6624 26.8806 82.903 26.8806 85.1437C26.8806 87.8714 26.3178 90.5504 25.2916 92.8397C24.1992 95.2265 22.6764 97.0774 20.8887 98.1977C19.0018 99.4155 16.6183 100.049 13.7713 100.049C8.73951 100.049 5.26357 98.6361 3.31042 95.7623C1.35727 92.8397 0.264834 89.2352 0 84.8514Z" fill="black"/>
<path id="Vector_2" d="M44.0286 81.4418L52.0398 84.9975C51.6094 87.9688 50.7156 90.7939 49.4908 93.2781C48.3652 95.47 46.8756 97.1748 45.1872 98.2952C43.4658 99.4155 41.2809 100 38.6326 100C35.4215 100 32.7732 99.3181 30.7538 97.9542C28.7013 96.5903 26.9468 94.1549 25.4571 90.6965C23.9674 87.2382 23.2392 82.8056 23.2392 77.3989C23.2392 70.1899 24.5302 64.6371 27.1454 60.7891C29.7607 56.941 33.4352 54.9927 38.2023 54.9927C41.943 54.9927 44.8562 56.113 47.008 58.3049C49.1266 60.5455 50.7156 63.9552 51.775 68.5338L43.6975 71.1641C43.4989 70.1412 43.201 69.1183 42.8037 68.2416C42.3072 67.2187 41.6782 66.4393 40.9168 65.8548C40.1554 65.2703 39.2947 65.0268 38.434 65.0268C36.3484 65.0268 34.7594 66.2445 33.667 68.7287C32.8394 70.5309 32.409 73.4048 32.409 77.3015C32.409 82.1237 32.9056 85.4359 33.8987 87.2382C34.8918 89.0404 36.2822 89.9172 38.1029 89.9172C39.8575 89.9172 41.1816 89.1865 42.0754 87.774C42.9693 86.264 43.6313 84.1695 44.0286 81.4418ZM62.7325 55.7233H71.8692V70.9693H81.8667V55.7233H91.0697V99.2693H81.8667V81.6366H71.8692V99.2693H62.7325V55.7233Z" fill="black"/>
<path id="Vector_3" d="M89.8117 77.4963C89.8117 70.3848 91.169 64.8319 93.8504 60.8865C96.5318 56.941 100.306 54.944 105.106 54.944C110.038 54.944 113.812 56.8923 116.494 60.7891C119.175 64.6858 120.499 70.1412 120.499 77.1554C120.499 82.2698 119.903 86.4101 118.745 89.6736C117.619 92.8884 115.865 95.5187 113.713 97.2723C111.495 99.0745 108.747 100 105.47 100C102.126 100 99.3788 99.2206 97.1939 97.6619C94.9428 96.0058 93.089 93.4242 91.8641 90.2581C90.5069 86.8485 89.8117 82.6108 89.8117 77.4963ZM98.9484 77.545C98.9484 81.9289 99.5112 85.095 100.604 87.0433C101.696 88.943 103.219 89.9172 105.139 89.9172C107.092 89.9172 108.615 88.9917 109.707 87.092C110.8 85.1924 111.329 81.8314 111.329 76.9605C111.329 72.869 110.767 69.849 109.641 67.998C108.516 66.0984 106.993 65.1729 105.073 65.1729C103.384 65.0755 101.762 66.1471 100.637 68.0467C99.5112 69.9464 98.9484 73.1125 98.9484 77.545ZM129.868 77.4963C129.868 70.3848 131.225 64.8319 133.906 60.8865C136.588 56.941 140.362 54.944 145.162 54.944C150.094 54.944 153.901 56.8923 156.55 60.7891C159.198 64.6858 160.555 70.1412 160.555 77.1554C160.555 82.2698 159.959 86.4101 158.801 89.6736C157.675 92.8884 155.921 95.5187 153.769 97.2723C151.551 99.0745 148.803 100 145.526 100C142.183 100 139.435 99.2206 137.25 97.6619C134.999 96.0058 133.145 93.4242 131.92 90.2581C130.563 86.8485 129.868 82.6108 129.868 77.4963ZM139.005 77.545C139.005 81.9289 139.567 85.095 140.66 87.0433C141.752 88.943 143.275 89.9172 145.195 89.9172C147.148 89.9172 148.671 88.9917 149.763 87.092C150.856 85.1924 151.385 81.8314 151.385 76.9605C151.385 72.869 150.823 69.849 149.697 67.998C148.572 66.0984 147.049 65.1729 145.129 65.1729C143.44 65.0755 141.785 66.1471 140.693 68.0467C139.567 69.9464 139.005 73.1125 139.005 77.545Z" fill="black"/>
<path id="Vector_4" d="M159.595 55.7233H168.732V88.5533H183V99.2694H159.562V55.7233H159.595Z" fill="black"/>
<path id="Vector_5" d="M149.525 53.2103C158.723 43.0106 161.56 25.7204 155.86 14.5917C150.161 3.46292 138.083 2.70977 128.884 12.9095C119.686 23.1092 116.849 40.3993 122.549 51.5281C128.248 62.6568 140.326 63.41 149.525 53.2103Z" fill="white"/>
<g id="Clip path group">
<mask id="mask0_12_51" style="mask-type:luminance" maskUnits="userSpaceOnUse" x="119" y="5" width="40" height="56">
<g id="SVGID_2_">
<path id="Vector_6" d="M149.525 53.2103C158.723 43.0106 161.56 25.7204 155.86 14.5917C150.161 3.46292 138.083 2.70977 128.884 12.9095C119.686 23.1092 116.849 40.3993 122.549 51.5281C128.248 62.6568 140.326 63.41 149.525 53.2103Z" fill="white"/>
</g>
</mask>
<g mask="url(#mask0_12_51)">
<g id="Group">
<path id="Vector_7" d="M99.0891 27.5405L146.624 -25.1671L179.517 39.0574L131.982 91.7651L99.0891 27.5405Z" fill="white"/>
<g id="Layer_2_1_">
<g id="Clip path group_2">
<mask id="mask1_12_51" style="mask-type:luminance" maskUnits="userSpaceOnUse" x="99" y="-26" width="81" height="118">
<g id="SVGID_4_">
<path id="Vector_8" d="M99.0891 27.5405L146.624 -25.1671L179.517 39.0574L131.982 91.7651L99.0891 27.5405Z" fill="white"/>
</g>
</mask>
<g mask="url(#mask1_12_51)">
<g id="Layer_1-2">
<path id="Vector_9" d="M149.525 53.2103C158.723 43.0106 161.56 25.7204 155.86 14.5917C150.161 3.46292 138.083 2.70977 128.884 12.9095C119.686 23.1092 116.849 40.3993 122.549 51.5281C128.248 62.6568 140.326 63.41 149.525 53.2103Z" fill="white"/>
<g id="Clip path group_3">
<mask id="mask2_12_51" style="mask-type:luminance" maskUnits="userSpaceOnUse" x="119" y="5" width="40" height="56">
<g id="SVGID_6_">
<path id="Vector_10" d="M149.525 53.2103C158.723 43.0106 161.56 25.7204 155.86 14.5917C150.161 3.46292 138.083 2.70977 128.884 12.9095C119.686 23.1092 116.849 40.3993 122.549 51.5281C128.248 62.6568 140.326 63.41 149.525 53.2103Z" fill="white"/>
</g>
</mask>
<g mask="url(#mask2_12_51)">
<g id="Group_2">
<path id="Vector_11" d="M112.326 31.829L145.612 -5.07727L166.271 35.263L132.986 72.1692L112.326 31.829Z" fill="white"/>
<g id="Clip path group_4">
<mask id="mask3_12_51" style="mask-type:luminance" maskUnits="userSpaceOnUse" x="112" y="-6" width="55" height="79">
<g id="SVGID_8_">
<path id="Vector_12" d="M112.326 31.829L145.612 -5.07727L166.271 35.263L132.986 72.1692L112.326 31.829Z" fill="white"/>
</g>
</mask>
<g mask="url(#mask3_12_51)">
<g id="Group_3">
<path id="Vector_13" d="M149.525 53.2103C158.723 43.0106 161.56 25.7204 155.86 14.5917C150.161 3.46292 138.083 2.70977 128.884 12.9095C119.686 23.1092 116.849 40.3993 122.549 51.5281C128.248 62.6568 140.326 63.41 149.525 53.2103Z" fill="white" stroke="black" stroke-width="4" stroke-miterlimit="10"/>
</g>
</g>
</g>
<g id="Clip path group_5">
<mask id="mask4_12_51" style="mask-type:luminance" maskUnits="userSpaceOnUse" x="117" y="-3" width="45" height="73">
<g id="SVGID_8__2">
<path id="Vector_14" d="M117.069 58.2958L130.113 -2.89367L161.557 8.78893L148.513 69.9784L117.069 58.2958Z" fill="white"/>
</g>
</mask>
<g mask="url(#mask4_12_51)">
<path id="Vector_15" d="M112.326 33.7939L146.893 -5.07726L166.271 33.298L131.704 72.1692L112.326 33.7939Z" stroke="black" stroke-width="4" stroke-miterlimit="10"/>
</g>
</g>
<path id="Vector_16" d="M149.525 53.2103C158.723 43.0106 161.56 25.7204 155.86 14.5917C150.161 3.46292 138.083 2.70977 128.884 12.9095C119.686 23.1092 116.849 40.3993 122.549 51.5281C128.248 62.6568 140.326 63.41 149.525 53.2103Z" stroke="black" stroke-width="4" stroke-miterlimit="10"/>
<path id="Vector_17" d="M112.326 31.829L145.612 -5.07727L166.271 35.263L132.986 72.1692L112.326 31.829Z" fill="white"/>
<g id="Clip path group_6">
<mask id="mask5_12_51" style="mask-type:luminance" maskUnits="userSpaceOnUse" x="112" y="-6" width="55" height="79">
<g id="SVGID_10_">
<path id="Vector_18" d="M112.326 31.829L145.612 -5.07727L166.271 35.263L132.986 72.1692L112.326 31.829Z" fill="white"/>
</g>
</mask>
<g mask="url(#mask5_12_51)">
<g id="Group_4">
<path id="Vector_19" d="M149.525 53.2103C158.723 43.0106 161.56 25.7204 155.86 14.5917C150.161 3.46292 138.083 2.70977 128.884 12.9095C119.686 23.1092 116.849 40.3993 122.549 51.5281C128.248 62.6568 140.326 63.41 149.525 53.2103Z" fill="white" stroke="black" stroke-width="4" stroke-miterlimit="10"/>
</g>
</g>
</g>
<g id="Clip path group_7">
<mask id="mask6_12_51" style="mask-type:luminance" maskUnits="userSpaceOnUse" x="117" y="-3" width="45" height="73">
<g id="SVGID_10__2">
<path id="Vector_20" d="M117.069 58.2958L130.113 -2.89367L161.557 8.78893L148.513 69.9784L117.069 58.2958Z" fill="white"/>
</g>
</mask>
<g mask="url(#mask6_12_51)">
<path id="Vector_21" d="M112.326 33.7939L146.893 -5.07726L166.271 33.298L131.704 72.1692L112.326 33.7939Z" stroke="black" stroke-width="4" stroke-miterlimit="10"/>
</g>
</g>
<path id="Vector_22" d="M99.0891 27.5405L146.624 -25.1671L179.517 39.0574L131.982 91.7651L99.0891 27.5405Z" stroke="black" stroke-width="4" stroke-miterlimit="10"/>
</g>
</g>
</g>
<path id="Vector_23" d="M149.525 53.2103C158.723 43.0106 161.56 25.7204 155.86 14.5917C150.161 3.46292 138.083 2.70977 128.884 12.9095C119.686 23.1092 116.849 40.3993 122.549 51.5281C128.248 62.6568 140.326 63.41 149.525 53.2103Z" stroke="black" stroke-width="4" stroke-miterlimit="10"/>
<path id="Vector_24" d="M129.901 29.8588L133.211 26.4491L137.283 34.9733C137.978 36.3371 138.508 37.7984 138.905 39.4058C139.137 40.6235 139.071 41.9387 138.74 43.1077C138.309 44.569 137.614 45.7867 136.687 46.6635C135.595 47.7838 134.668 48.417 133.873 48.6118C133.112 48.8067 132.317 48.6118 131.589 48.1247C130.795 47.5402 130.099 46.7122 129.57 45.6406L132.417 41.7438C132.649 42.2796 132.946 42.7667 133.278 43.1564C133.509 43.3999 133.774 43.5461 134.072 43.5461C134.304 43.5461 134.535 43.3999 134.701 43.2051C135.032 42.9129 135.264 42.3283 135.231 41.7438C135.131 40.9158 134.9 40.0877 134.535 39.4545L129.901 29.8588ZM139.832 35.2655L142.845 31.7584C143.176 32.343 143.606 32.7813 144.069 33.0249C144.732 33.3171 145.427 33.1223 145.99 32.4891C146.387 32.0994 146.718 31.5636 146.85 30.8817C147.049 30.0049 146.718 29.0307 146.122 28.7385C146.023 28.6898 145.923 28.6411 145.824 28.6411C145.427 28.5923 144.732 28.8359 143.705 29.4691C142.017 30.492 140.693 30.8817 139.7 30.7355C138.74 30.5894 137.846 29.8588 137.316 28.6411C136.919 27.813 136.72 26.8388 136.687 25.8646C136.687 24.7443 136.886 23.624 137.316 22.6985C137.945 21.3834 138.707 20.2631 139.634 19.3863C141.024 17.9737 142.249 17.2918 143.308 17.2918C144.367 17.2918 145.361 18.0224 146.287 19.5324L143.308 22.9908C142.712 21.8705 141.587 21.6269 140.825 22.5037L140.726 22.6498C140.395 22.9421 140.163 23.3805 140.031 23.9163C139.931 24.3059 139.998 24.7443 140.163 25.0853C140.296 25.3288 140.494 25.5237 140.726 25.5237C140.991 25.5724 141.454 25.3775 142.116 24.9392C143.772 23.9163 145.029 23.3318 145.89 23.1369C146.618 22.9421 147.38 23.0395 148.075 23.4779C148.704 23.8676 149.234 24.5495 149.598 25.3775C150.061 26.3517 150.326 27.5207 150.359 28.7385C150.392 30.0049 150.161 31.2226 149.697 32.2942C149.101 33.6094 148.34 34.7297 147.446 35.6065C145.625 37.4574 144.136 38.2368 142.944 37.9445C141.653 37.6523 140.594 36.6781 139.832 35.2655Z" fill="black"/>
</g>
</g>
</g>
</g>
</g>
</g>
</g>
</g>
<defs>
<clipPath id="clip0_12_51">
<rect width="183" height="100" fill="white"/>
</clipPath>
</defs>
</svg>
